<svg version="1.1" viewBox="0.0 0.0 184.0 100.0" fill="none" stroke="none" stroke-linecap="square" stroke-miterlimit="10" xmlns:xlink="http://www.w3.org/1999/xlink" xmlns="http://www.w3.org/2000/svg"><clipPath id="p.0"><path d="m0 0l184.0 0l0 100.0l-184.0 0l0 -100.0z" clip-rule="nonzero"/></clipPath><g clip-path="url(#p.0)"><path fill="#000000" fill-opacity="0.0" d="m0 0l184.0 0l0 100.0l-184.0 0z" fill-rule="evenodd"/><path fill="#000000" fill-opacity="0.0" d="m12.849081 12.387139l-0.34645653 72.50394" fill-rule="evenodd"/><path stroke="#ffffff" stroke-width="2.0" stroke-linejoin="round" stroke-linecap="butt" d="m12.849081 12.387139l-0.34645653 72.50394" fill-rule="evenodd"/><path fill="#000000" fill-opacity="0.0" d="m11.506561 84.874016l166.99213 0" fill-rule="evenodd"/><path stroke="#ffffff" stroke-width="2.0" stroke-linejoin="round" stroke-linecap="butt" d="m11.506561 84.874016l166.99213 0" fill-rule="evenodd"/><path fill="#000000" fill-opacity="0.0" d="m-6.5 7.1076117l105.00787 0l0 34.299213l-105.00787 0z" fill-rule="evenodd"/><path fill="#ffffff" d="m11.84375 36.68699q-3.859375 -1.109375 -5.625 -2.71875q-1.75 -1.625 -1.75 -4.000002q0 -2.6875 2.140625 -4.4375q2.15625 -1.765625 5.59375 -1.765625q2.34375 0 4.171875 0.90625q1.84375 0.90625 2.84375 2.5q1.015625 1.59375 1.015625 3.484375l-3.015625 0q0 -2.0625 -1.3125 -3.234375q-1.3125 -1.1875 -3.703125 -1.1875q-2.21875 0 -3.46875 0.984375q-1.234375 0.96875 -1.234375 2.703125q0 1.390625 1.171875 2.359377q1.1875 0.953125 4.015625 1.75q2.84375 0.796875 4.4375 1.765625q1.609375 0.953125 2.375 2.234375q0.78125 1.28125 0.78125 3.015625q0 2.765625 -2.15625 4.4375q-2.15625 1.65625 -5.765625 1.65625q-2.34375 0 -4.375 -0.890625q-2.03125 -0.90625 -3.140625 -2.46875q-1.09375 -1.5625 -1.09375 -3.546875l3.015625 0q0 2.0625 1.515625 3.265625q1.53125 1.1875 4.078125 1.1875q2.375 0 3.640625 -0.96875q1.265625 -0.96875 1.265625 -2.640625q0 -1.671875 -1.171875 -2.578125q-1.171875 -0.921875 -4.25 -1.8125zm15.75 -10.859377l0 4.09375l3.15625 0l0 2.234377l-3.15625 0l0 10.484375q0 1.015625 0.421875 1.53125q0.421875 0.5 1.4375 0.5q0.5 0 1.375 -0.1875l0 2.34375q-1.140625 0.3125 -2.21875 0.3125q-1.9375 0 -2.921875 -1.171875q-0.984375 -1.171875 -0.984375 -3.328125l0 -10.484375l-3.078125 0l0 -2.234377l3.078125 0l0 -4.09375l2.890625 0zm5.453125 12.390627q0 -2.484375 0.96875 -4.46875q0.984375 -1.9843769 2.71875 -3.062502q1.75 -1.078125 3.984375 -1.078125q3.453125 0 5.578125 2.390625q2.140625 2.390627 2.140625 6.359377l0 0.203125q0 2.46875 -0.953125 4.4375q-0.9375 1.953125 -2.703125 3.046875q-1.75 1.09375 -4.03125 1.09375q-3.4375 0 -5.578125 -2.390625q-2.125 -2.390625 -2.125 -6.328125l0 -0.203125zm2.90625 0.34375q0 2.8125 1.296875 4.515625q1.3125 1.703125 3.5 1.703125q2.203125 0 3.5 -1.71875q1.296875 -1.734375 1.296875 -4.84375q0 -2.78125 -1.328125 -4.5q-1.3125 -1.7343769 -3.5 -1.7343769q-2.140625 0 -3.453125 1.7031269q-1.3125 1.703125 -1.3125 4.875zm22.890625 6.21875q1.546875 0 2.703125 -0.9375q1.15625 -0.9375 1.28125 -2.34375l2.734375 0q-0.078125 1.453125 -1.0 2.765625q-0.921875 1.3125 -2.46875 2.09375q-1.53125 0.78125 -3.25 0.78125q-3.453125 0 -5.5 -2.296875q-2.03125 -2.3125 -2.03125 -6.3125l0 -0.484375q0 -2.46875 0.90625 -4.390625q0.90625 -1.9218769 2.59375 -2.984377q1.703125 -1.0625 4.015625 -1.0625q2.84375 0 4.71875 1.703125q1.890625 1.7031269 2.015625 4.421877l-2.734375 0q-0.125 -1.640625 -1.25 -2.6875q-1.109375 -1.0625019 -2.75 -1.0625019q-2.203125 0 -3.421875 1.5937519q-1.203125 1.578125 -1.203125 4.578125l0 0.546875q0 2.921875 1.203125 4.5q1.203125 1.578125 3.4375 1.578125zm14.6875 -5.78125l-1.8125 1.890625l0 5.9375l-2.890625 0l0 -24.000002l2.890625 0l0 14.515627l1.546875 -1.859375l5.265625 -5.562502l3.515625 0l-6.578125 7.062502l7.34375 9.84375l-3.390625 0l-5.890625 -7.828125z" fill-rule="nonzero"/><path fill="#000000" fill-opacity="0.0" d="m0.507874 37.182415l136.0 0l0 46.393703l-136.0 0z" fill-rule="evenodd"/><path fill="#ffffff" d="m25.007874 66.38679l-9.859374 0l0 8.0625l11.453124 0l0 2.453125l-14.453124 0l0 -22.749996l14.296874 0l0 2.46875l-11.296874 0l0 7.3125l9.859374 0l0 2.4531212zm10.546875 -0.21875l3.75 -6.171871l3.375 0l-5.53125 8.359371l5.703125 8.546875l-3.34375 0l-3.90625 -6.328125l-3.90625 6.328125l-3.359375 0l5.703125 -8.546875l-5.53125 -8.359371l3.34375 0l3.703125 6.171871zm18.5625 10.734375l0 -22.749996l6.421875 0q2.96875 0 5.25 1.3125q2.28125 1.3125 3.515625 3.734375q1.25 2.421875 1.265625 5.562496l0 1.453125q0 3.21875 -1.25 5.640625q-1.234375 2.421875 -3.546875 3.71875q-2.296875 1.296875 -5.359375 1.328125l-6.296875 0zm3.0 -20.281246l0 17.828121l3.15625 0q3.46875 0 5.390625 -2.15625q1.9375 -2.15625 1.9375 -6.140625l0 -1.328125q0 -3.8749962 -1.828125 -6.015621q-1.8125 -2.15625 -5.15625 -2.1875l-3.5 0zm27.96875 20.281246q-0.25 -0.5 -0.40625 -1.78125q-2.015625 2.09375 -4.8125 2.09375q-2.5 0 -4.109375 -1.40625q-1.59375 -1.421875 -1.59375 -3.59375q0 -2.640625 2.0 -4.09375q2.015625 -1.46875 5.65625 -1.46875l2.8125 0l0 -1.328125q0 -1.5156212 -0.90625 -2.4062462q-0.90625 -0.90625 -2.671875 -0.90625q-1.546875 0 -2.59375 0.78125q-1.046875 0.78125 -1.046875 1.8906212l-2.90625 0q0 -1.2656212 0.890625 -2.4374962q0.90625 -1.1875 2.4375 -1.875q1.546875 -0.6875 3.390625 -0.6875q2.921875 0 4.578125 1.46875q1.65625 1.453125 1.71875 4.015621l0 7.78125q0 2.328125 0.59375 3.703125l0 0.25l-3.03125 0zm-4.796875 -2.203125q1.359375 0 2.578125 -0.703125q1.21875 -0.703125 1.765625 -1.828125l0 -3.46875l-2.265625 0q-5.3125 0 -5.3125 3.109375q0 1.359375 0.90625 2.125q0.90625 0.765625 2.328125 0.765625zm15.6875 -18.796871l0 4.09375l3.15625 0l0 2.234375l-3.15625 0l0 10.484371q0 1.015625 0.421875 1.53125q0.421875 0.5 1.4375 0.5q0.5 0 1.375 -0.1875l0 2.34375q-1.140625 0.3125 -2.21875 0.3125q-1.9375 0 -2.921875 -1.171875q-0.984375 -1.171875 -0.984375 -3.328125l0 -10.484371l-3.078125 0l0 -2.234375l3.078125 0l0 -4.09375l2.890625 0zm16.96875 20.999996q-0.25 -0.5 -0.40625 -1.78125q-2.015625 2.09375 -4.8125 2.09375q-2.5 0 -4.109375 -1.40625q-1.59375 -1.421875 -1.59375 -3.59375q0 -2.640625 2.0 -4.09375q2.015625 -1.46875 5.65625 -1.46875l2.8125 0l0 -1.328125q0 -1.5156212 -0.90625 -2.4062462q-0.90625 -0.90625 -2.671875 -0.90625q-1.546875 0 -2.59375 0.78125q-1.046875 0.78125 -1.046875 1.8906212l-2.90625 0q0 -1.2656212 0.890625 -2.4374962q0.90625 -1.1875 2.4375 -1.875q1.546875 -0.6875 3.390625 -0.6875q2.921875 0 4.578125 1.46875q1.65625 1.453125 1.71875 4.015621l0 7.78125q0 2.328125 0.59375 3.703125l0 0.25l-3.03125 0zm-4.796875 -2.203125q1.359375 0 2.578125 -0.703125q1.21875 -0.703125 1.765625 -1.828125l0 -3.46875l-2.265625 0q-5.3125 0 -5.3125 3.109375q0 1.359375 0.90625 2.125q0.90625 0.765625 2.328125 0.765625z" fill-rule="nonzero"/></g></svg>